<mxfile host="65bd71144e">
    <diagram id="vpLNOhqSkCQm9DPbiz_e" name="Page-1">
        <mxGraphModel dx="2905" dy="1440" grid="1" gridSize="10" guides="1" tooltips="1" connect="1" arrows="1" fold="1" page="0" pageScale="1" pageWidth="827" pageHeight="1169" math="0" shadow="0">
            <root>
                <mxCell id="0"/>
                <mxCell id="1" parent="0"/>
                <mxCell id="32" value="" style="ellipse;whiteSpace=wrap;html=1;aspect=fixed;dashed=1;strokeColor=default;fontSize=20;fillColor=none;" vertex="1" parent="1">
                    <mxGeometry y="930" width="510" height="510" as="geometry"/>
                </mxCell>
                <mxCell id="2" value="自转" style="ellipse;whiteSpace=wrap;html=1;aspect=fixed;fillColor=none;fontSize=20;" vertex="1" parent="1">
                    <mxGeometry x="120" y="160" width="280" height="280" as="geometry"/>
                </mxCell>
                <mxCell id="5" value="" style="curved=1;endArrow=classic;html=1;fontSize=20;" edge="1" parent="1">
                    <mxGeometry width="50" height="50" relative="1" as="geometry">
                        <mxPoint x="280" y="300" as="sourcePoint"/>
                        <mxPoint x="280" y="290" as="targetPoint"/>
                        <Array as="points">
                            <mxPoint x="280" y="320"/>
                            <mxPoint x="240" y="320"/>
                            <mxPoint x="240" y="280"/>
                        </Array>
                    </mxGeometry>
                </mxCell>
                <mxCell id="14" value="" style="ellipse;whiteSpace=wrap;html=1;aspect=fixed;fillColor=none;fontSize=20;" vertex="1" parent="1">
                    <mxGeometry x="120" y="560" width="280" height="280" as="geometry"/>
                </mxCell>
                <mxCell id="15" value="" style="curved=1;endArrow=classic;html=1;fontSize=20;" edge="1" parent="1">
                    <mxGeometry width="50" height="50" relative="1" as="geometry">
                        <mxPoint x="279.9999999999998" y="700" as="sourcePoint"/>
                        <mxPoint x="279.9999999999998" y="690" as="targetPoint"/>
                        <Array as="points">
                            <mxPoint x="280" y="720"/>
                            <mxPoint x="240" y="720"/>
                            <mxPoint x="240" y="680"/>
                        </Array>
                    </mxGeometry>
                </mxCell>
                <mxCell id="19" value="" style="ellipse;whiteSpace=wrap;html=1;strokeColor=default;fontSize=20;fillColor=none;dashed=1;" vertex="1" parent="1">
                    <mxGeometry x="120" y="520" width="390" height="360" as="geometry"/>
                </mxCell>
                <mxCell id="23" value="" style="ellipse;whiteSpace=wrap;html=1;aspect=fixed;fillColor=none;fontSize=20;" vertex="1" parent="1">
                    <mxGeometry x="120" y="1050" width="280" height="280" as="geometry"/>
                </mxCell>
                <mxCell id="24" value="" style="curved=1;endArrow=classic;html=1;fontSize=20;" edge="1" parent="1">
                    <mxGeometry width="50" height="50" relative="1" as="geometry">
                        <mxPoint x="269.9999999999998" y="1190" as="sourcePoint"/>
                        <mxPoint x="269.9999999999998" y="1180" as="targetPoint"/>
                        <Array as="points">
                            <mxPoint x="270" y="1210"/>
                            <mxPoint x="230" y="1210"/>
                            <mxPoint x="230" y="1170"/>
                        </Array>
                    </mxGeometry>
                </mxCell>
                <mxCell id="54" value="" style="group;fontSize=20;" vertex="1" connectable="0" parent="1">
                    <mxGeometry x="500" y="1150" width="30" height="60" as="geometry"/>
                </mxCell>
                <mxCell id="34" value="" style="rounded=0;whiteSpace=wrap;html=1;strokeColor=default;fontSize=20;fillColor=none;direction=north;container=0;" vertex="1" parent="54">
                    <mxGeometry x="10" y="10" width="10" height="40" as="geometry"/>
                </mxCell>
                <mxCell id="35" value="" style="triangle;whiteSpace=wrap;html=1;strokeColor=default;fontSize=20;fillColor=none;direction=north;container=0;" vertex="1" parent="54">
                    <mxGeometry x="10" width="10" height="10" as="geometry"/>
                </mxCell>
                <mxCell id="36" value="" style="shape=trapezoid;perimeter=trapezoidPerimeter;whiteSpace=wrap;html=1;fixedSize=1;strokeColor=default;fontSize=20;fillColor=none;direction=east;size=10;container=0;" vertex="1" parent="54">
                    <mxGeometry y="50" width="30" height="10" as="geometry"/>
                </mxCell>
                <mxCell id="59" value="" style="endArrow=none;dashed=1;html=1;dashPattern=1 3;strokeWidth=2;rounded=1;fontSize=20;" edge="1" parent="1">
                    <mxGeometry width="50" height="50" relative="1" as="geometry">
                        <mxPoint x="260" y="1513.9999389648438" as="sourcePoint"/>
                        <mxPoint x="260" y="80" as="targetPoint"/>
                    </mxGeometry>
                </mxCell>
                <mxCell id="60" value="" style="endArrow=none;dashed=1;html=1;dashPattern=1 3;strokeWidth=2;rounded=1;fontSize=20;" edge="1" parent="1">
                    <mxGeometry width="50" height="50" relative="1" as="geometry">
                        <mxPoint x="120" y="1503.9999389648438" as="sourcePoint"/>
                        <mxPoint x="120" y="80" as="targetPoint"/>
                    </mxGeometry>
                </mxCell>
                <mxCell id="61" value="" style="endArrow=none;dashed=1;html=1;dashPattern=1 3;strokeWidth=2;rounded=1;fontSize=20;" edge="1" parent="1">
                    <mxGeometry width="50" height="50" relative="1" as="geometry">
                        <mxPoint x="510" y="1503.9999389648438" as="sourcePoint"/>
                        <mxPoint x="510" y="80" as="targetPoint"/>
                    </mxGeometry>
                </mxCell>
                <mxCell id="62" value="" style="shape=crossbar;whiteSpace=wrap;html=1;rounded=1;strokeColor=default;fontSize=20;fillColor=none;" vertex="1" parent="1">
                    <mxGeometry x="120" y="70" width="140" height="20" as="geometry"/>
                </mxCell>
                <mxCell id="63" value="" style="shape=crossbar;whiteSpace=wrap;html=1;rounded=1;strokeColor=default;fontSize=20;fillColor=none;" vertex="1" parent="1">
                    <mxGeometry x="260" y="70" width="250" height="20" as="geometry"/>
                </mxCell>
                <mxCell id="67" value="" style="group;fontSize=20;" vertex="1" connectable="0" parent="1">
                    <mxGeometry x="90" y="270" width="30" height="60" as="geometry"/>
                </mxCell>
                <mxCell id="39" value="" style="rounded=0;whiteSpace=wrap;html=1;strokeColor=default;fontSize=20;fillColor=none;direction=north;rotation=-180;container=0;" vertex="1" parent="67">
                    <mxGeometry x="10" y="10" width="10" height="40" as="geometry"/>
                </mxCell>
                <mxCell id="40" value="" style="triangle;whiteSpace=wrap;html=1;strokeColor=default;fontSize=20;fillColor=none;direction=north;rotation=-180;container=0;" vertex="1" parent="67">
                    <mxGeometry x="10" y="50" width="10" height="10" as="geometry"/>
                </mxCell>
                <mxCell id="41" value="" style="shape=trapezoid;perimeter=trapezoidPerimeter;whiteSpace=wrap;html=1;fixedSize=1;strokeColor=default;fontSize=20;fillColor=none;direction=east;size=10;rotation=-180;container=0;" vertex="1" parent="67">
                    <mxGeometry width="30" height="10" as="geometry"/>
                </mxCell>
                <mxCell id="68" style="edgeStyle=none;rounded=1;html=1;fontSize=20;" edge="1" parent="1" source="41">
                    <mxGeometry relative="1" as="geometry">
                        <mxPoint x="105" y="230" as="targetPoint"/>
                    </mxGeometry>
                </mxCell>
                <mxCell id="69" value="V0" style="text;html=1;align=center;verticalAlign=middle;resizable=0;points=[];autosize=1;strokeColor=none;fillColor=none;fontSize=20;" vertex="1" parent="1">
                    <mxGeometry x="80" y="200" width="50" height="40" as="geometry"/>
                </mxCell>
                <mxCell id="70" value="Vp" style="text;html=1;align=center;verticalAlign=middle;resizable=0;points=[];autosize=1;strokeColor=none;fillColor=none;fontSize=20;" vertex="1" parent="1">
                    <mxGeometry x="80" y="790" width="50" height="40" as="geometry"/>
                </mxCell>
                <mxCell id="71" value="" style="group;fontSize=20;" vertex="1" connectable="0" parent="1">
                    <mxGeometry x="90" y="670" width="30" height="60" as="geometry"/>
                </mxCell>
                <mxCell id="44" value="" style="rounded=0;whiteSpace=wrap;html=1;strokeColor=default;fontSize=20;fillColor=none;direction=north;rotation=-180;container=0;" vertex="1" parent="71">
                    <mxGeometry x="10" y="10" width="10" height="40" as="geometry"/>
                </mxCell>
                <mxCell id="45" value="" style="triangle;whiteSpace=wrap;html=1;strokeColor=default;fontSize=20;fillColor=none;direction=north;rotation=-180;container=0;" vertex="1" parent="71">
                    <mxGeometry x="10" y="50" width="10" height="10" as="geometry"/>
                </mxCell>
                <mxCell id="46" value="" style="shape=trapezoid;perimeter=trapezoidPerimeter;whiteSpace=wrap;html=1;fixedSize=1;strokeColor=default;fontSize=20;fillColor=none;direction=east;size=10;rotation=-180;container=0;" vertex="1" parent="71">
                    <mxGeometry width="30" height="10" as="geometry"/>
                </mxCell>
                <mxCell id="72" style="edgeStyle=none;rounded=1;html=1;fontSize=20;" edge="1" parent="1" source="44">
                    <mxGeometry relative="1" as="geometry">
                        <mxPoint x="105" y="800" as="targetPoint"/>
                    </mxGeometry>
                </mxCell>
                <mxCell id="73" value="" style="group;fontSize=20;" vertex="1" connectable="0" parent="1">
                    <mxGeometry x="510" y="670" width="30" height="60" as="geometry"/>
                </mxCell>
                <mxCell id="56" value="" style="rounded=0;whiteSpace=wrap;html=1;strokeColor=default;fontSize=20;fillColor=none;direction=north;container=0;" vertex="1" parent="73">
                    <mxGeometry x="10" y="10" width="10" height="40" as="geometry"/>
                </mxCell>
                <mxCell id="57" value="" style="triangle;whiteSpace=wrap;html=1;strokeColor=default;fontSize=20;fillColor=none;direction=north;container=0;" vertex="1" parent="73">
                    <mxGeometry x="10" width="10" height="10" as="geometry"/>
                </mxCell>
                <mxCell id="58" value="" style="shape=trapezoid;perimeter=trapezoidPerimeter;whiteSpace=wrap;html=1;fixedSize=1;strokeColor=default;fontSize=20;fillColor=none;direction=east;size=10;container=0;" vertex="1" parent="73">
                    <mxGeometry y="50" width="30" height="10" as="geometry"/>
                </mxCell>
                <mxCell id="74" style="edgeStyle=none;rounded=1;html=1;fontSize=20;" edge="1" parent="1" source="56">
                    <mxGeometry relative="1" as="geometry">
                        <mxPoint x="525" y="600" as="targetPoint"/>
                    </mxGeometry>
                </mxCell>
                <mxCell id="75" value="Va" style="text;html=1;align=center;verticalAlign=middle;resizable=0;points=[];autosize=1;strokeColor=none;fillColor=none;fontSize=20;" vertex="1" parent="1">
                    <mxGeometry x="500" y="570" width="50" height="40" as="geometry"/>
                </mxCell>
                <mxCell id="76" value="" style="group;fontSize=20;" vertex="1" connectable="0" parent="1">
                    <mxGeometry x="-30" y="1160" width="30" height="60" as="geometry"/>
                </mxCell>
                <mxCell id="48" value="" style="rounded=0;whiteSpace=wrap;html=1;strokeColor=default;fontSize=20;fillColor=none;direction=north;rotation=-180;container=0;" vertex="1" parent="76">
                    <mxGeometry x="10" y="10" width="10" height="40" as="geometry"/>
                </mxCell>
                <mxCell id="49" value="" style="triangle;whiteSpace=wrap;html=1;strokeColor=default;fontSize=20;fillColor=none;direction=north;rotation=-180;container=0;" vertex="1" parent="76">
                    <mxGeometry x="10" y="50" width="10" height="10" as="geometry"/>
                </mxCell>
                <mxCell id="50" value="" style="shape=trapezoid;perimeter=trapezoidPerimeter;whiteSpace=wrap;html=1;fixedSize=1;strokeColor=default;fontSize=20;fillColor=none;direction=east;size=10;rotation=-180;container=0;" vertex="1" parent="76">
                    <mxGeometry width="30" height="10" as="geometry"/>
                </mxCell>
                <mxCell id="77" style="edgeStyle=none;rounded=1;html=1;fontSize=20;" edge="1" parent="1" source="49">
                    <mxGeometry relative="1" as="geometry">
                        <mxPoint x="-15" y="1320" as="targetPoint"/>
                    </mxGeometry>
                </mxCell>
                <mxCell id="78" value="Vd" style="text;html=1;align=center;verticalAlign=middle;resizable=0;points=[];autosize=1;strokeColor=none;fillColor=none;fontSize=20;" vertex="1" parent="1">
                    <mxGeometry x="-40" y="1310" width="50" height="40" as="geometry"/>
                </mxCell>
                <mxCell id="79" value="Ra" style="text;html=1;align=center;verticalAlign=middle;resizable=0;points=[];autosize=1;strokeColor=none;fillColor=none;fontSize=20;" vertex="1" parent="1">
                    <mxGeometry x="350" y="70" width="50" height="40" as="geometry"/>
                </mxCell>
                <mxCell id="80" value="Rp" style="text;html=1;align=center;verticalAlign=middle;resizable=0;points=[];autosize=1;strokeColor=none;fillColor=none;fontSize=20;" vertex="1" parent="1">
                    <mxGeometry x="165" y="70" width="50" height="40" as="geometry"/>
                </mxCell>
                <mxCell id="81" value="(A)" style="text;html=1;align=center;verticalAlign=middle;resizable=0;points=[];autosize=1;strokeColor=none;fillColor=none;fontSize=20;" vertex="1" parent="1">
                    <mxGeometry x="-170" y="280" width="50" height="40" as="geometry"/>
                </mxCell>
                <mxCell id="82" value="(B)" style="text;html=1;align=center;verticalAlign=middle;resizable=0;points=[];autosize=1;strokeColor=none;fillColor=none;fontSize=20;" vertex="1" parent="1">
                    <mxGeometry x="-170" y="680" width="50" height="40" as="geometry"/>
                </mxCell>
                <mxCell id="83" value="(C)" style="text;html=1;align=center;verticalAlign=middle;resizable=0;points=[];autosize=1;strokeColor=none;fillColor=none;fontSize=20;" vertex="1" parent="1">
                    <mxGeometry x="-170" y="1170" width="50" height="40" as="geometry"/>
                </mxCell>
            </root>
        </mxGraphModel>
    </diagram>
</mxfile>